<svg width="350" height="416" viewBox="0 0 350 416" fill="none" xmlns="http://www.w3.org/2000/svg">
<path d="M219.501 146.369C219.501 146.369 243.791 157.716 238.471 212.04C233.151 266.364 170.191 369.13 162.211 379.406C154.231 389.681 122.751 420.022 81.5114 414.636C40.2714 409.25 19.0314 381.315 19.0314 381.315M31.4314 257.7C21.5114 246.817 -16.7086 198.641 30.0714 147.44C83.2814 89.1973 129.131 161.667 129.131 161.667M153.831 144.128C153.741 132.252 156.181 108.666 175.141 96.1278M175.141 96.1278C175.691 95.7636 176.251 95.4104 176.831 95.0683C204.771 78.4354 233.591 92.6291 244.671 101.922C255.761 111.227 262.411 119.758 266.401 124.791C270.391 129.824 287.681 164.072 293.891 171.412C300.091 178.752 340.441 213.993 347.091 250.691C353.741 287.401 336.901 306.484 332.021 316.759C327.141 327.035 308.081 349.551 287.681 360.312C267.281 371.084 234.031 371.084 211.421 360.312C198.491 354.164 190.481 346.251 185.991 340.6M175.141 96.1278C154.121 52.2442 169.291 0.138916 169.291 0.138916M166.971 39.784C166.971 39.784 189.691 14.3325 229.151 21.1865C268.611 28.0406 283.411 57.3992 283.411 57.3992C283.411 57.3992 267.931 53.9777 240.121 69.1427C212.311 84.3077 186.501 68.6571 181.221 65.7212C175.951 62.7853 167.991 51.98 170.421 47.8411C172.851 43.7022 186.591 34.8946 213.191 37.8305C239.791 40.7663 257.971 52.0242 257.971 52.0242M190.131 42.223C190.131 42.223 195.011 51.0306 210.081 55.4344C225.151 59.8382 234.911 58.8559 234.911 58.8559M213.191 37.8199C213.191 37.8199 225.161 28.0298 234.921 29.0121M212.741 139.615C233.071 155.861 230.481 182.681 226.041 200.297C221.601 217.912 193.231 279.09 185.691 294.741C178.151 310.402 143.571 363.248 134.701 372.066C125.831 380.874 85.4814 426.391 34.0514 393.6C-17.3786 360.809 4.80143 303.063 7.90143 292.787C11.0014 282.512 39.8214 246.299 52.6814 232.105C65.5414 217.912 117.861 170.441 133.381 158.212C148.901 145.983 187.031 119.053 212.741 139.615ZM126.281 242.381C138.251 252.656 160.421 275.172 137.811 314.806C115.201 354.44 80.1714 335.854 70.8614 329.485C61.5514 323.117 30.5114 290.822 70.8614 250.206C95.1914 225.715 126.281 242.381 126.281 242.381Z" stroke="black" stroke-miterlimit="10"/>
</svg>
