<svg width="517" height="401" viewBox="0 0 517 401" fill="none" xmlns="http://www.w3.org/2000/svg">
<path d="M438.067 7.2265C479.61 -18.0206 515.893 -39.1492 515.893 -39.1492M164.911 230.079C157.371 238.87 150.231 247.656 143.612 256.355M287.949 184.293C287.949 184.293 287.944 184.261 287.921 184.189C287.594 182.819 284.301 168.347 286.124 147.978C287.412 133.57 291.254 116.214 300.528 98.4722L300.526 98.4616C300.526 98.4616 300.526 98.4616 300.536 98.4593L300.535 98.4487L300.545 98.4464C300.545 98.4464 300.545 98.4464 300.543 98.4358M299.879 98.4501L299.881 98.461L299.891 98.4587M301.112 103.081C301.112 103.081 294.665 136.36 336.196 149.22M286.61 147.851C270.215 156.76 263.266 170.643 261.331 175.234M199.561 276.105C211.328 279.746 227.158 279.671 248.216 271.271M271.209 191.155C269.725 186.769 266.995 180.578 262.202 174.884C256.03 167.557 246.443 161.061 231.704 160.305C224.723 159.941 216.581 160.868 207.092 163.61C164.884 175.805 161.446 210.021 164.082 230.659C165.046 238.161 166.805 243.867 167.802 246.078C168.954 248.634 171.596 254.214 176.43 259.964M96.3907 293.867C86.1069 312.021 80.7086 336.933 91.0603 362.051C106.652 399.915 138.668 406.353 171.804 395.799C204.94 385.246 222.313 342.347 218.061 316.949C215.808 303.47 210.708 287.421 200.606 275.479C194.919 268.742 187.627 263.315 178.36 260.379C173.092 258.707 167.174 257.852 160.548 258.013C153.747 258.182 147.921 258.728 142.923 259.52M92.0682 360.208C71.112 386.032 43.8084 382.897 26.2417 368.133C21.2241 363.915 16.9893 358.737 13.943 353.021C10.3864 346.348 8.2983 339.435 7.38344 332.602C4.73958 313.144 11.546 294.403 20.5937 284.032C29.2877 274.06 44.9394 270.624 53.2416 269.465M13.6841 333.963C13.6841 333.963 2.94087 328.091 0.801178 336.926C-1.33852 345.761 8.54287 349.352 11.2306 358.014C13.9182 366.676 11.7498 378.416 16.5894 380.731C21.4271 383.035 28.2078 379.58 27.0615 367.841M417.954 18.9476C417.954 18.9476 393.675 33.2009 401.145 75.575C408.618 117.96 437.966 128.588 437.966 128.588C459.391 98.1513 457.021 65.2004 452.986 38.4483C450.784 23.7899 443.742 13.3145 437.063 8.29629M437.063 8.29629C436.194 7.64271 435.331 7.08612 434.496 6.62195C429.978 4.1383 427.285 5.67945 424.22 7.74455C415.708 13.4758 422.073 20.5813 432.389 16.1751C434.542 15.2622 437.114 12.2158 437.063 8.29629ZM437.063 8.29629C437.07 7.3419 436.962 6.31569 436.741 5.23875C435.079 -3.07261 426.78 -14.7034 404.53 -25.3818C367.635 -43.084 322.099 -37.6797 322.099 -37.6797C322.099 -37.6797 346.168 -2.62874 367.61 18.2887M367.61 18.2887C382.695 14.5671 395.184 14.9922 400.165 15.4745C410.652 16.493 412.573 27.3838 393.675 33.2009C387.551 35.0847 377.886 28.3026 367.61 18.2887ZM367.61 18.2887C350.902 22.4069 331.002 31.62 314.588 51.4719C314.588 51.4719 353.365 58.1725 381.04 41.504C364.931 52.0654 335.723 70.1169 325.744 77.7198C317.758 83.8004 308.584 91.053 298.596 99.2493C298.597 99.2598 298.597 99.2598 298.597 99.2598L298.587 99.2621C298.578 99.2644 298.578 99.2644 298.578 99.2644L298.579 99.2749M249.979 142.223C243.676 147.946 237.301 153.837 230.93 159.869M286.498 114.743C286.498 114.743 266.251 136.15 234.138 147.146C202.025 158.143 161.339 157.389 161.339 157.389C161.339 157.389 160.504 135.804 199.708 101.295C238.912 66.7859 278.796 86.6913 285.7 92.3724C292.595 98.0558 291.407 104.018 278.981 105.998C266.556 107.979 230.358 72.2269 221.79 47.4593C212.468 20.5143 211.928 -8.46795 211.928 -8.46795C211.928 -8.46795 249.932 9.02716 279.774 41.1485C309.615 73.2699 297.084 94.8982 297.084 94.8982L297.072 94.8899M232.549 75.7551C232.549 75.7551 205.647 65.1215 195.619 67.502C195.619 67.502 162.779 -4.79155 71.1508 55.3991C71.1508 55.3991 90.0267 87.4399 130.385 86.8167C170.744 86.1935 185.959 66.9284 185.959 66.9284C185.959 66.9284 109.856 65.1663 103.33 55.73M272.721 73.1775C272.721 73.1775 247.172 37.5662 243.041 32.9317C240.448 30.0281 227.721 33.3706 236.876 46.7695C247.077 61.6946 266.133 55.8382 266.133 55.8382M262.392 105.12C262.392 105.12 200.403 117.589 188.393 136.18M215.164 101.071C215.164 101.071 240.699 101.554 252.393 114.909M341.243 37.1408C341.243 37.1408 355.905 40.4987 369.015 37.7811C382.126 35.0636 382.126 35.0636 382.126 35.0636M408.355 13.0982C408.355 13.0982 382.996 -20.5622 359.58 -19.4026M429.529 30.7874C429.529 30.7874 423.716 60.8629 428.579 83.0603C433.442 105.258 420.757 101.797 418.259 87.6888C415.76 73.5811 431.708 64.0198 431.708 64.0198M417.26 32.4009C417.26 32.4009 430.564 37.6037 434.312 48.413M318.711 183.726C318.711 183.726 323.974 147.416 366.505 138.36C403.092 130.576 421.94 175.855 416.013 196.06C412.484 208.102 401.674 237.175 355.033 240.182M115.995 48.1871C115.995 48.1871 140.473 50.8479 148.951 69.7365M394.97 -10.3248C394.97 -10.3248 376.657 0.868363 361.921 -7.11034M291.727 184.767C285.073 185.711 276.635 189.419 271.102 193.036C246.336 210.531 235.292 242.702 247.438 272.202C250.757 280.253 256.76 290.889 264.164 295.952C306.785 325.105 346.948 284.325 350.387 271.696C351.883 266.198 357.389 251.889 354.893 231.593C354.893 231.593 351.627 207.045 332.217 193.179C313.253 179.615 291.727 184.767 291.727 184.767ZM144.04 255.243C144.04 255.243 143.442 256.059 142.324 257.443C118.17 263.015 113.761 270.241 113.761 270.241C107.462 275.116 101.01 282.574 95.805 291.777C89.4344 293.203 82.8806 293.064 76.4607 290.467C64.7541 285.733 56.9383 277.97 51.7757 269.518C42.7885 254.821 41.5058 242.752 42.4266 231.421C43.6117 216.793 54.5066 206.573 54.5066 206.573C69.7621 188.032 104.807 176.308 128.334 197.064C151.849 217.813 144.04 255.243 144.04 255.243ZM64.5217 234.371C67.755 231.929 67.4875 213.556 76.5651 217.041C85.6426 220.527 86.4487 234.17 82.9564 236.431C79.4642 238.692 72.0557 242.097 71.0855 239.169C70.1152 236.242 72.2051 233.813 73.5851 235.201C74.9733 236.577 77.679 255.843 72.9086 258.639C68.1381 261.436 56.6689 249.596 60.1024 248.29C63.5359 246.983 64.1354 247.808 64.5062 249.911C64.8769 252.013 57.1765 261.547 51.8218 254.533C46.467 247.519 51.5011 237.145 55.9228 237.58C60.3625 238 64.5217 234.371 64.5217 234.371ZM294.662 263.287C297.365 262.621 296.033 245.869 304.546 247.569C313.059 249.268 314.714 261.207 312.793 264.547C310.871 267.887 306.204 267.274 306.987 263.956C307.77 260.639 328.04 250.414 329.844 259.171C331.647 267.928 325.612 278.98 318.314 278.972C311.016 278.965 309.533 274.47 306.414 276.158C303.295 277.846 309.961 293.217 298.799 292.89C287.636 292.563 286.73 273.208 289.639 272.897C292.55 272.597 294.028 273.216 294.302 276.05C294.576 278.884 290.121 285.945 279.534 278.972C268.946 271.988 276.516 260.593 281.818 259.612C287.108 258.622 287.552 265.045 294.662 263.287ZM142.271 352.323C145.015 352.486 148.184 335.889 155.827 340.082C163.471 344.276 161.894 356.316 159.183 358.964C156.474 361.623 152.192 359.627 153.816 356.652C155.441 353.677 177.409 349.861 176.809 358.868C176.209 367.876 167.552 376.758 160.613 374.568C153.671 372.368 153.454 367.586 150.039 368.285C146.623 368.984 148.901 385.84 138.379 382.179C127.857 378.518 132.104 359.528 134.952 360.102C137.801 360.676 139.046 361.728 138.557 364.551C138.068 367.373 131.962 372.871 123.739 362.956C115.517 353.04 125.728 344.28 131.026 344.921C136.322 345.552 135.058 351.905 142.271 352.323ZM374.297 190.375C382.05 190.913 374.765 200.915 380.291 202.676C384.166 203.902 389.18 206.437 387.779 212.755C386.665 217.774 373.505 225.264 366.899 212.241C363.488 205.525 373.92 207.051 373.622 210.21C373.365 212.901 369.277 221.86 364.166 221.345C359.046 220.833 354.105 217.069 356.286 210.33C357.767 205.752 363.212 206.997 364.166 199.143C364.992 192.313 367.661 189.917 374.297 190.375ZM180.306 208.041C184.471 204.092 187.766 216.604 189.872 216.613C193.117 216.612 194.225 205.732 198.946 215.927C203.667 226.121 195.965 231.941 193.534 229.206C191.102 226.47 193.458 224.488 194.312 225.093C195.175 225.696 200.831 239.136 195.262 245.474C189.695 251.823 180.198 233.765 182.658 233.197C185.119 232.63 188.928 233.949 185.616 236.8C182.304 239.652 176.477 238.765 176.132 229.286C175.787 219.807 181.279 225.846 181.987 222.101C182.695 218.356 175.136 212.936 180.306 208.041Z" stroke="black" stroke-miterlimit="10"/>
</svg>
