<svg width="260" height="260" viewBox="0 0 260 260" fill="none" xmlns="http://www.w3.org/2000/svg">
<circle cx="130" cy="130" r="130" fill="#EBF0E4"/>
<path d="M107 61C92.1535 61 78.9458 69.2685 69.8033 81.8438C60.6608 94.4247 55.25 111.399 55.25 130C55.25 148.595 60.6608 165.581 69.8033 178.156C78.9458 190.737 92.1535 199 107 199C154.322 199 179.548 171.935 185.706 143.478C190.03 140.35 193.25 135.727 193.25 130C193.25 124.273 190.036 119.65 185.7 116.522C179.22 87.3465 149.05 61 107 61ZM107 72.5C117.557 72.5 127.355 78.342 134.853 88.6747C142.351 98.996 147.25 113.67 147.25 130C147.25 146.33 142.351 160.992 134.853 171.331C127.349 181.652 117.557 187.5 107 187.5C96.443 187.5 86.645 181.658 79.147 171.325C71.649 161.004 66.75 146.33 66.75 130C66.75 113.67 71.649 99.0075 79.147 88.669C86.6508 78.342 96.443 72.5 107 72.5ZM143.656 81.3033C161.136 90.5608 172.36 105.787 175.103 120.656L175.638 123.531L178.34 124.79C180.335 125.71 181.75 127.643 181.75 130C181.75 132.357 180.336 134.29 178.335 135.21L175.643 136.469L175.103 139.344C172.044 155.99 162.005 172.314 141.857 181.031C142.644 180.088 143.455 179.168 144.197 178.156C153.339 165.575 158.75 148.601 158.75 130C158.75 111.405 153.339 94.419 144.197 81.8438C144.036 81.6425 143.812 81.5045 143.656 81.3033ZM107 84C102.889 84 99.0247 85.4835 95.5 87.956L107.178 115.441L119.04 88.1285C115.395 85.4663 111.266 84 107 84ZM86.875 97.1158C82.3612 104.188 79.262 113.676 78.4283 124.25H98.375L86.875 97.1158ZM127.487 97.6562L115.797 124.25H135.566C134.761 113.917 131.834 104.689 127.476 97.6562H127.487ZM78.4225 135.75C79.2275 146.083 82.1542 155.311 86.507 162.344L98.2025 135.75H78.4225ZM115.619 135.75L127.119 162.884C131.633 155.812 134.732 146.324 135.566 135.75H115.619ZM106.816 144.553L94.9537 171.866C98.5935 174.54 102.728 176 106.994 176C111.105 176 114.969 174.517 118.494 172.044L106.816 144.553Z" fill="black"/>
</svg>
