<svg width="260" height="260" viewBox="0 0 260 260" fill="none" xmlns="http://www.w3.org/2000/svg">
<circle cx="130" cy="130" r="130" fill="#EBF0E4"/>
<path d="M169.531 56.147L163.063 65.669C163.063 65.669 166.587 68.4117 168.272 72.3217C169.733 75.7545 170.791 79.7795 165.219 86.5127L160.188 91.5497C143.254 77.1287 126.044 76.4502 126.044 76.4502H122.813L121.013 79.3252C121.013 79.3252 106.35 104.257 92.2629 130C85.2191 142.868 78.2501 155.967 73.4086 166.3C70.9764 171.463 69.0674 175.96 67.8311 179.594C67.2274 181.411 66.7961 182.94 66.5776 184.625C66.3476 186.31 65.7209 188.621 68.5499 191.456C71.3846 194.285 73.6961 193.652 75.3809 193.428C77.0656 193.204 78.5951 192.778 80.4121 192.175C84.0519 190.938 88.5426 189.029 93.7119 186.597C104.027 181.75 117.126 174.792 130 167.743C155.72 153.632 180.675 138.993 180.675 138.993L183.55 137.193V133.778C183.55 133.778 182.785 116.775 168.456 99.8182L170.428 97.662C170.923 97.1675 171.371 96.8282 171.866 96.4027L173.303 95.1435C180.088 89.934 186.511 90.141 192.175 91.5555C196.104 92.5482 199.818 94.2514 203.134 96.581L210.322 87.5995C210.322 87.5995 203.939 82.6832 194.866 80.412C192.859 79.9403 190.817 79.6402 188.759 79.515L200.438 67.831L192.169 59.5682L180.134 71.6087C179.844 70.2524 179.422 68.9275 178.875 67.6527C175.638 60.1087 169.531 56.1527 169.531 56.1527V56.147ZM128.919 88.669C132.697 89.0312 143.501 90.601 156.416 103.584C169.353 116.614 170.946 127.332 171.325 131.075C170.382 131.639 165.466 134.606 161.625 136.825C159.588 132.308 157.056 128.03 154.075 124.072L144.916 131.081C148.958 136.469 150.62 140.177 151.563 142.581C142.557 147.683 133.512 152.714 124.428 157.675C123.871 157.962 123.376 158.278 122.813 158.572C121.755 155.426 120.03 151.631 116.884 147.25L107.541 153.897C110.37 157.853 111.761 161.107 112.394 163.241C112.503 163.603 112.503 163.689 112.566 163.959C103.97 168.565 95.6611 172.987 88.8531 176.178C85.3054 177.846 82.7869 178.766 80.2281 179.772C81.2401 177.213 82.1601 174.695 83.8219 171.147C88.4679 161.245 95.3449 148.331 102.325 135.572C105.695 129.419 108.259 124.813 111.313 119.397C113.153 121.013 115.533 123.192 118.144 126.584L127.125 119.575C124.209 115.704 120.83 112.205 117.063 109.156C123.083 98.5992 127.89 90.4457 128.925 88.669H128.919Z" fill="black"/>
</svg>
