<svg width="260" height="260" viewBox="0 0 260 260" fill="none" xmlns="http://www.w3.org/2000/svg">
<circle cx="130" cy="130" r="130" fill="#EBF0E4"/>
<path d="M98.375 69.625L101.612 77.5312C103.63 82.4475 106.373 94.7353 105.741 100.531C97.9035 105.361 93.0965 110.076 89.3878 114.009C84.8568 110.347 75.8925 104.125 61 104.125H55.25V109.875C55.25 120.881 59.2232 129.822 60.6435 132.875C59.206 135.905 55.25 144.53 55.25 155.875V161.625H61C75.7775 161.625 84.851 155.381 89.3935 151.741C96.1957 158.75 105.896 166.139 118.143 171.688C117.603 175.258 117.178 180.243 118.678 186.062L119.759 190.375H124.25C131.345 190.375 137.458 186.85 142.397 183.728C146.439 181.163 148.394 179.369 149.406 178.513C172.274 177.708 186.873 165.374 194.688 153.178C202.772 140.58 204.75 128.022 204.75 128.022L204.928 126.584L204.393 125.147C204.393 125.147 191.226 88.9853 155.519 87.2315C151.723 82.6315 146.416 78.8135 138.987 75.7315C130.201 72.0975 119.15 69.625 107 69.625H98.375ZM115.084 81.8438C122.341 82.6488 129.126 84.115 134.491 86.3345C141.839 89.3705 146.957 93.7233 148.147 95.6783L149.769 98.375H153C181.727 98.375 192.06 125.572 192.893 127.844C192.491 129.954 190.824 137.975 184.987 147.072C178.312 157.468 167.507 167.375 147.25 167.375H145.094L143.478 168.812C143.478 168.812 140.442 171.4 136.29 174.022C134.105 175.396 132.248 175.644 130 176.54C130.23 173.913 130 170.072 130 170.072L131.259 165.04L126.585 163.419C112.347 157.985 100.238 147.744 94.0625 140.603L90.1065 135.928L85.794 140.241C85.794 140.241 78.135 145.611 68.1875 148.147C69.671 141.408 71.9595 135.394 71.9595 135.394L73.2188 132.875L71.9595 130.357C71.9595 130.357 69.4697 123.756 68.0092 116.7C78.6065 119.041 85.794 125.509 85.794 125.509L90.1065 129.822L94.0625 125.147C99.2088 119.334 113.066 104.844 133.415 102.147L131.794 90.8253C126.291 91.5498 121.49 93.1425 116.884 94.9652C116.591 90.1352 116.344 85.978 115.084 81.8438ZM167.375 121.375C165.088 121.375 162.894 122.284 161.276 123.901C159.659 125.519 158.75 127.713 158.75 130C158.75 132.287 159.659 134.481 161.276 136.099C162.894 137.716 165.088 138.625 167.375 138.625C169.662 138.625 171.856 137.716 173.474 136.099C175.091 134.481 176 132.287 176 130C176 127.713 175.091 125.519 173.474 123.901C171.856 122.284 169.662 121.375 167.375 121.375Z" fill="black"/>
</svg>
