<svg width="64" height="562" viewBox="0 0 64 562" fill="none" xmlns="http://www.w3.org/2000/svg">
<path d="M17.632 3.648C18.496 2.304 19.6 1.632 20.944 1.632C22.8 1.632 23.952 3.104 24.4 6.048C21.424 6.56 19.36 7.648 18.208 9.312C17.184 10.784 16.672 12.336 16.672 13.968C16.672 15.632 17.168 17.056 18.16 18.24C19.184 19.456 20.848 20.064 23.152 20.064C24.88 20.064 26.24 19.44 27.232 18.192C28.256 16.976 29.152 15.424 29.92 13.536C30.688 11.648 31.216 10.368 31.504 9.696C31.824 9.024 32.288 8.16 32.896 7.104C33.504 6.08 34.08 5.312 34.624 4.8C36.096 3.52 37.792 2.88 39.712 2.88C42.72 2.88 44.992 4 46.528 6.24C48.064 8.48 48.832 11.6 48.832 15.6C48.832 17.872 48.576 20.512 48.064 23.52H40.96V21.936L46.624 20.016C47.136 18.416 47.392 16.784 47.392 15.12C47.392 13.488 46.864 12.064 45.808 10.848C44.784 9.632 43.248 9.024 41.2 9.024C38.864 9.024 37.12 10.08 35.968 12.192C35.424 13.248 34.88 14.496 34.336 15.936C33.792 17.376 33.376 18.416 33.088 19.056C32.832 19.696 32.4 20.544 31.792 21.6C31.216 22.656 30.64 23.44 30.064 23.952C29.488 24.464 28.72 24.928 27.76 25.344C26.832 25.76 25.808 25.968 24.688 25.968C21.968 25.968 19.744 24.816 18.016 22.512C16.288 20.208 15.424 17.056 15.424 13.056C15.424 9.088 16.16 5.952 17.632 3.648ZM31.648 45.5145C32.288 45.6745 33.008 45.7545 33.808 45.7545C34.64 45.7545 35.488 45.5145 36.352 45.0345C37.76 44.3305 38.464 43.2585 38.464 41.8185C38.464 37.9785 34.848 36.0585 27.616 36.0585C20.416 36.0585 16.816 38.0265 16.816 41.9625C16.816 44.9385 18.256 47.3225 21.136 49.1145C20.912 49.8185 20.56 50.1705 20.08 50.1705C19.632 50.1705 19.056 49.8665 18.352 49.2585C17.68 48.6825 17.024 47.6585 16.384 46.1865C15.776 44.7465 15.472 43.0825 15.472 41.1945C15.472 37.5785 16.576 34.7145 18.784 32.6025C21.024 30.5225 24 29.4825 27.712 29.4825C31.456 29.4825 34.432 30.5705 36.64 32.7465C38.848 34.9225 39.952 37.9785 39.952 41.9145C39.952 43.1305 39.792 44.3305 39.472 45.5145C39.184 46.6985 38.544 47.8185 37.552 48.8745C36.56 49.9305 35.36 50.4585 33.952 50.4585C32.576 50.4585 31.68 49.8345 31.264 48.5865C31.104 48.1385 31.024 47.6425 31.024 47.0985C31.024 46.5545 31.232 46.0265 31.648 45.5145ZM33.76 62.4484C35.488 62.9924 36.96 63.9844 38.176 65.4244C39.392 66.8964 40 68.2244 40 69.4084C40 70.6244 39.696 71.4404 39.088 71.8564C38.512 72.2724 38.032 72.4804 37.648 72.4804C36.336 72.4804 35.392 72.0004 34.816 71.0404C35.328 70.4004 35.584 69.4404 35.584 68.1604C35.584 66.9124 35.184 65.6644 34.384 64.4164C33.616 63.1684 32.768 62.5444 31.84 62.5444H17.392L17.104 66.8644H16L16 53.4724H17.104L17.344 56.6404H37.84L38.032 52.7524H39.136L39.664 62.5444L33.76 62.2564V62.4484ZM18.928 95.9899C16.624 93.7499 15.472 90.6939 15.472 86.8219C15.472 82.9499 16.624 79.8939 18.928 77.6539C21.232 75.4139 24.16 74.2939 27.712 74.2939C31.264 74.2939 34.192 75.4139 36.496 77.6539C38.8 79.8939 39.952 82.9499 39.952 86.8219C39.952 90.6939 38.8 93.7499 36.496 95.9899C34.192 98.2299 31.264 99.3499 27.712 99.3499C24.16 99.3499 21.232 98.2299 18.928 95.9899ZM27.712 80.9659C20.32 80.9659 16.624 82.9179 16.624 86.8219C16.624 90.7259 20.32 92.6779 27.712 92.6779C31.328 92.6779 34.064 92.2459 35.92 91.3819C37.808 90.5179 38.752 88.9979 38.752 86.8219C38.752 84.6459 37.808 83.1259 35.92 82.2619C34.064 81.3979 31.328 80.9659 27.712 80.9659ZM16 114.547V102.163H17.104L17.392 105.283H50.464L50.608 101.155H51.76L52.864 111.427H17.392L17.104 114.547H16ZM16 128.844V116.46H17.104L17.392 119.58H50.464L50.608 115.452H51.76L52.864 125.724H17.392L17.104 128.844H16Z" fill="white"/>
<line x1="29" y1="149" x2="29" y2="553" stroke="white" stroke-width="2" stroke-linecap="square" stroke-linejoin="round" stroke-dasharray="8 8"/>
</svg>
