<svg width="495" height="430" viewBox="0 0 495 430" fill="none" xmlns="http://www.w3.org/2000/svg">
<path d="M166.438 150.259C151.646 130.285 132.398 87.844 144.758 60.5641C167.689 9.95724 249.007 -9.99007 276.197 5.77522C269.77 6.3237 249.517 14.1344 228.392 27.4098C209.19 39.4769 201.257 71.2545 226.017 50.5385C234.686 43.2857 259.695 24.3038 276.184 20.4273C309.575 12.5769 341.77 17.976 363.167 38.2859C348.201 37.8239 319.497 38.0892 288.607 49.1794C249.993 63.0421 235.687 80.9882 236.494 82.8617C237.301 84.7352 236.183 82.5511 271.576 68.2249C328.002 45.3853 396.856 45.7234 435.365 101.608C397.383 76.2963 364.027 82.0964 318.163 88.7972C295.659 92.0851 255.397 108.037 260.056 112.508C264.716 116.979 270.269 113.845 288.153 109.286C306.037 104.726 342.889 102.366 365.566 104.256C415.528 108.421 466.58 107.891 491.204 192.219C449.371 150.2 390.28 145.433 339.359 143.462C328.569 143.044 261.696 146.807 264.579 164.057C266.311 174.418 297.1 167.204 305.765 166.618C314.429 166.031 354.524 162.506 365.977 162.384C377.431 162.261 402.103 161.44 432.238 175.296C462.372 189.153 477.21 207.564 481.706 214.327C486.203 221.09 494.584 243.209 494.008 259.562C493.547 272.645 493.775 286.504 493.947 291.798C487.392 281.48 469.439 258.178 441.864 241.182C407.395 219.938 379.706 212.708 366.503 210.438C353.299 208.168 332.572 207.693 332.177 215.453C331.781 223.213 352.714 233.924 363.046 238.542C373.378 243.161 397.711 253.452 406.696 258.28C415.681 263.109 440.604 280.485 456.548 295.458C472.493 310.43 475.979 323.526 477.798 344.771C479.254 361.766 465.64 398.302 461.01 404.802C464.178 394.798 460.589 379.561 447.987 364.254M166.438 150.259L153.018 148.822M166.438 150.259C168.196 140.43 166.986 105.588 172.484 87.3725C179.357 64.6036 188.212 52.8239 198.689 41.0896M166.438 150.259C171.385 140.043 185.31 115.284 201.437 97.9686C221.595 76.3239 246.01 56.5473 259.585 46.9952M166.438 150.259C169.64 151.128 173.903 152.543 179.078 154.558M166.438 150.259C117.731 158.205 55.345 225.188 66.859 274.938M447.987 364.254C402.264 346.282 433.257 380.643 412.966 379.135C396.639 377.923 379.213 372.803 350.357 339.885C332.811 319.869 310.211 259.467 301.661 274.141C291.871 290.943 304.443 327.876 327.849 359.306C356.665 397.999 398.033 404.918 401.67 406.683C395.979 406.605 355.644 426.695 335.032 423.208C319.6 420.598 292.793 414.147 270.555 378.562C248.316 342.977 244.583 295.221 243.675 282.098C242.948 271.601 246.726 242.341 248.706 229.023C248.365 222.445 245.356 212.104 236.057 223.367C224.433 237.447 229.111 300.594 235.278 329.591C242.316 362.686 266.949 407.027 295.364 429.004C284.68 427.129 252.082 425.496 231.542 416.28C205.866 404.761 189.503 393.382 179.778 364.807C170.054 336.232 167.39 312.01 168.131 290.032C168.872 268.054 176.057 240.337 179.135 231.791C181.597 224.955 190.536 207.485 193.313 199.131C171.692 204.995 161.823 234.812 157.761 254.611C154.611 269.966 150.046 294.071 150.321 306.726C150.828 330.079 153.523 386.891 183.96 398.378C156.615 392.704 122.369 363.373 110.347 339.664C96.942 313.23 100.398 282.381 103.396 271.648C106.394 260.916 120.862 223.397 129.035 210.989C135.574 201.063 140.806 191.354 142.605 187.741C144.399 184.561 146.041 179.226 138.256 183.321C130.47 187.416 119.946 201.022 115.657 207.313C112.312 213.012 105.009 225.859 102.558 231.654C99.4952 238.898 90.3708 264.118 88.9906 273.599C87.6103 283.079 86.0649 298.184 88.281 310.002C90.0538 319.456 94.6424 329.659 96.7151 333.579C74.6049 327.955 41.7179 298.132 38.539 258.355C35.4791 220.065 61.9497 195.238 85.9215 172.488C88.9592 170.192 94.9396 161.706 81.8624 163.935C49.9013 169.383 25.5423 210.48 20.0322 239.199C13.805 235.095 1.21088 207.945 0.552868 191.198C-0.400193 166.942 11.5798 145.192 32.3293 133.433M447.987 364.254C435.884 354.414 398.581 323.844 388.249 314.82C377.199 305.169 347.588 290.193 317.251 245.233M153.018 148.822C142.379 139.153 131.011 131.464 121.716 126.583C112.422 121.703 93.627 118.14 71.0288 120.103C58.5746 121.185 43.8749 126.889 32.3293 133.433M153.018 148.822C134.001 148.193 43.2936 142.703 26.6281 176.831M153.018 148.822C129.56 141.669 78.6758 127.435 62.8046 127.72C46.9335 128.005 35.8748 131.647 32.3293 133.433M194.255 161.074C185.492 168.664 165.754 188.724 156.903 208.236C145.838 232.626 129.064 274.471 126.081 304.265C123.695 328.099 127.548 343.494 129.773 348.212M194.255 161.074C188.591 158.441 183.501 156.28 179.078 154.558M194.255 161.074C198.424 163.011 202.903 165.205 207.657 167.668M226.664 178.175C221.172 183.688 209.256 205.298 205.522 247.633C200.854 300.551 204.705 326.844 211.252 352.716C216.488 373.413 223.344 387.675 226.117 392.219M226.664 178.175C219.949 174.235 213.59 170.742 207.657 167.668M226.664 178.175C235.478 183.345 244.903 189.284 254.777 196.05M273.96 209.858C279.097 213.736 284.319 217.826 289.606 222.135C299.82 230.46 308.992 238.144 317.251 245.233M273.96 209.858C271.338 219.795 270.749 247.368 274.942 283.871C280.291 330.435 284.486 337.356 297.147 369.244C305.075 389.21 318.427 399.331 324.985 402.628M273.96 209.858C267.414 204.916 261.006 200.318 254.777 196.05M179.078 154.558C192.956 140.146 226.024 109.032 247.277 99.8736C273.842 88.426 288.17 80.9558 309.692 76.4946M207.657 167.668C212.167 160.603 231.034 144.489 270.417 136.551C319.646 126.629 345.465 125.129 387.719 128.394C421.523 131.006 437.873 141.09 441.823 145.805M254.777 196.05C266.376 193.705 300.808 188.652 345.75 187.205C390.691 185.758 438.858 211.688 457.324 224.834M317.251 245.233C340.604 252.81 402.35 286.159 417.66 299.258C432.97 312.356 447.47 329.05 452.807 335.759" stroke="black" stroke-linecap="round" stroke-linejoin="round"/>
</svg>
