<svg width="406" height="336" viewBox="0 0 406 336" fill="none" xmlns="http://www.w3.org/2000/svg">
<path d="M278.489 131.256C292.904 117.51 313.913 86.6325 307.888 63.3992C296.71 20.2993 235.23 -6.58486 211.601 2.14123C216.602 3.45435 231.524 12.3946 246.387 25.7695C259.898 37.9269 261.812 64.1056 245.096 44.3577C239.244 37.4439 222.095 19.0312 209.606 13.7128C184.314 2.94241 158.152 2.79781 138.477 15.9057C150.357 17.5898 172.986 21.7291 195.86 34.7154C224.452 50.9484 233.292 67.0778 232.398 68.4467C231.504 69.8155 232.687 68.244 206.7 52.086C165.272 26.3259 110.856 17.1663 72.7971 56.0219C106.254 41.2353 131.799 50.382 167.097 61.9523C184.417 67.6295 214.025 85.7376 209.734 88.6302C205.442 91.5229 201.486 88.2882 187.989 82.2394C174.492 76.1906 145.715 69.281 127.55 67.669C87.5287 64.1175 47.2889 56.7095 16.3001 119.926C55.0853 92.4738 102.398 96.7998 142.876 102.215C151.453 103.363 203.744 115.489 199.105 128.716C196.319 136.66 172.994 126.748 166.233 125.099C159.472 123.449 128.295 115.177 119.267 113.512C110.24 111.847 90.8701 107.821 65.1782 114.637C39.4862 121.452 25.2491 133.959 20.7728 138.684C16.2964 143.408 6.65003 159.727 4.86594 172.719C3.43867 183.112 1.36078 194.024 0.500202 198.181C7.08951 190.931 24.456 174.989 48.5567 165.344C78.6826 153.288 101.536 151.37 112.273 151.385C123.01 151.4 139.441 153.863 138.691 160.045C137.941 166.226 119.946 171.818 111.155 174.05C102.364 176.283 81.7409 181.077 73.9853 183.66C66.2296 186.243 44.1709 196.551 29.5306 206.191C14.8902 215.831 10.3448 225.694 5.9995 242.221C2.52325 255.442 8.27099 286.155 11.0373 291.922C9.90525 283.589 14.8252 272.048 26.8719 261.687M278.489 131.256L289.283 131.959M278.489 131.256C278.447 123.255 284.172 95.908 282.325 80.772C280.015 61.8521 274.635 51.3382 267.969 40.638M278.489 131.256C275.981 122.513 268.375 101.056 258.012 85.1751C245.058 65.3241 228.487 46.3652 219.076 36.9642M278.489 131.256C275.842 131.504 272.282 132.038 267.92 132.921M278.489 131.256C315.862 144.199 355.953 205.632 340.05 243.34M26.8719 261.687C65.4368 253.755 36.2596 276.644 52.4882 278.232C65.5464 279.51 80.0075 277.853 107.3 255.811C123.895 242.408 150.01 197.806 154.752 210.565C160.182 225.172 145.199 252.614 122.414 274.227C94.3623 300.836 60.7498 300.635 57.6362 301.531C62.1405 302.249 91.2399 323.634 107.993 323.703C120.536 323.755 142.587 322.331 165.019 297.277C187.451 272.222 196.937 235.024 199.451 224.787C201.462 216.597 202.484 192.975 202.744 182.188C203.915 177.04 207.706 169.286 213.507 179.454C220.757 192.163 208.419 241.385 199.579 263.438C189.49 288.606 163.969 320.247 138.523 333.71C147.216 333.693 173.18 336.866 190.661 332.402C212.512 326.82 226.991 320.076 238.582 298.844C250.173 277.612 255.592 258.849 258.016 241.394C260.44 223.938 258.561 201.068 257.301 193.899C256.293 188.163 251.626 173.145 250.577 166.168C266.847 173.758 270.557 198.654 271.054 214.844C271.439 227.4 271.744 247.059 269.794 257.014C266.196 275.384 256.29 319.876 230.683 324.779C253.053 324.043 284.109 305.571 296.849 288.496C311.053 269.458 312.547 244.626 311.649 235.74C310.751 226.855 304.464 195.248 299.709 184.332C295.905 175.599 293.102 167.216 292.176 164.116C291.195 161.36 290.629 156.922 296.216 161.222C301.803 165.522 308.25 177.706 310.776 183.261C312.637 188.219 316.645 199.363 317.786 204.275C319.213 210.414 322.965 231.577 322.757 239.252C322.549 246.927 321.702 259.066 318.334 268.095C315.64 275.317 310.619 282.746 308.446 285.557C326.675 284.143 356.726 265.097 364.682 234.123C372.341 204.307 354.838 181.079 339.024 159.833C336.939 157.604 333.379 150.084 343.4 153.635C367.891 162.313 381.5 198.099 381.918 221.531C387.398 219.143 401.059 199.429 403.872 186.295C407.945 167.272 401.463 148.457 386.689 136.331M26.8719 261.687C37.7761 255.574 71.4171 236.542 80.8112 230.831C90.8579 224.723 116.289 216.952 146.4 185.604M289.283 131.959C299.007 125.781 309.036 121.266 317.044 118.685C325.051 116.103 340.38 115.863 357.955 120.507C367.641 123.067 378.468 129.583 386.689 136.331M289.283 131.959C304.385 134.066 376.762 142.15 385.249 171.38M289.283 131.959C308.785 129.523 350.913 125.249 363.407 127.647C375.9 130.045 384.134 134.436 386.689 136.331M255.043 135.988C260.923 143.182 273.763 161.724 278.081 178.343C283.478 199.117 290.995 234.455 289.271 258.389C287.892 277.536 282.742 289.165 280.339 292.586M255.043 135.988C259.876 134.684 264.191 133.675 267.92 132.921M255.043 135.988C251.486 136.947 247.649 138.066 243.558 139.36M227.111 145.054C230.692 150.159 237.143 168.855 234.296 202.795C230.737 245.22 224.096 265.454 215.385 284.987C208.416 300.613 201.05 310.936 198.239 314.144M227.111 145.054C232.952 142.863 238.452 140.975 243.558 139.36M227.111 145.054C219.444 147.931 211.188 151.33 202.465 155.32M185.427 163.597C180.84 165.956 176.156 168.471 171.391 171.15C162.187 176.325 153.892 181.136 146.4 185.604M185.427 163.597C186.137 171.803 182.827 193.656 174.519 221.905C163.92 257.941 159.659 262.832 145.296 286.278C136.303 300.959 124.374 307.123 118.744 308.828M185.427 163.597C191.272 160.591 196.962 157.838 202.465 155.32M267.92 132.921C258.935 119.64 237.082 90.5447 221.555 80.4035C202.145 67.7271 191.854 59.8668 175.471 53.3975M243.558 139.36C240.964 133.164 228.272 117.856 198.261 106.197C160.747 91.6223 140.565 86.9032 106.753 83.6963C79.7027 81.1308 65.4115 86.8547 61.6472 90.0373M202.465 155.32C193.627 151.88 167.13 143.177 131.841 135.881C96.5519 128.585 54.9681 142.466 38.5873 150.318M146.4 185.604C126.923 188.389 73.6003 206.269 59.7177 214.516C45.8351 222.763 32.0999 233.959 26.9676 238.527" stroke="black" stroke-linecap="round" stroke-linejoin="round"/>
</svg>
