<svg width="513" height="348" viewBox="0 0 513 348" fill="none" xmlns="http://www.w3.org/2000/svg">
<path d="M263.237 177.651C263.237 177.651 262.347 144.082 284.517 133.205C306.687 122.327 310.237 123.309 310.237 123.309C310.237 123.309 314.667 133.205 312.007 136.98C309.347 140.765 307.627 135.977 307.627 135.092C307.627 134.207 312.947 125.345 326.577 125.345C340.207 125.345 347.357 132.618 347.357 132.618C347.357 132.618 347.187 140.061 343.367 143.431C343.367 143.431 348.857 136.158 357.667 136.692C357.667 136.692 369.967 147.505 374.127 155.481C374.127 155.481 363.487 171.264 344.527 173.034C344.527 173.034 354.167 174.986 356.667 177.641C356.667 177.641 323.247 190.587 316.597 184.551C309.947 178.515 319.587 178.697 322.417 181.714C325.247 184.732 330.897 193.413 330.897 193.413C330.897 193.413 303.797 201.037 298.477 187.558L299.977 198.201C299.977 198.201 274.367 193.061 266.887 184.37C259.407 175.679 284.677 162.733 297.647 159.544C310.617 156.356 336.057 154.052 343.707 155.641M256.587 174.1C256.587 174.1 243.617 148.571 216.687 146.086C216.687 146.086 212.697 154.948 218.017 160.099C218.017 160.099 208.377 141.128 175.447 149.989C175.447 149.989 181.437 165.239 185.757 164.887C190.077 164.535 190.577 158.147 185.927 157.977C181.267 157.795 161.567 157.891 150.847 170.208C150.847 170.208 159.157 176.948 165.807 175.881C165.807 175.881 153.507 176.948 143.197 204.962C143.197 204.962 165.807 215.242 178.117 210.635C178.117 210.635 173.797 224.114 168.807 224.818C168.807 224.818 196.737 223.751 199.897 213.471C203.057 203.191 192.747 207.084 193.417 210.283C194.087 213.482 201.067 224.818 201.067 224.818C201.067 224.818 219.357 225.884 227.667 210.635C227.667 210.635 229.997 220.211 226.007 223.399C226.007 223.399 259.927 199.64 258.927 181.203C257.927 162.765 185.077 183.346 177.237 191.578M194.727 164.535C194.727 164.535 215.677 170.56 215.017 181.906M233.307 181.906C233.307 181.906 229.317 197.156 211.027 201.059M325.417 141.714C325.417 141.714 305.217 148.816 303.517 160.749M287.507 169.142C287.507 169.142 314.777 172.693 328.407 167.723M281.417 127.531C281.417 127.531 296.937 103.42 288.507 84.0336C288.507 84.0336 277.867 88.2885 277.867 92.0741C277.867 92.0741 286.737 53.7803 273.877 36.2809C273.877 36.2809 267.227 39.1175 266.337 45.2599C266.337 45.2599 247.267 15.4758 239.737 12.1593C239.737 12.1593 235.527 20.1998 237.077 29.8933C237.077 29.8933 225.327 3.88416 211.807 0.578369C211.807 0.578369 206.707 10.2718 208.477 16.894C208.477 16.894 186.307 1.05824 178.767 6.73141C178.767 6.73141 172.117 25.8837 178.767 35.8117C178.767 35.8117 174.107 33.9242 170.347 36.5262C170.347 36.5262 166.797 61.5862 188.527 76.4836C188.527 76.4836 178.107 75.0653 177.217 78.3711C176.327 81.6769 180.767 98.9417 204.267 109.819C204.267 109.819 193.407 110.288 192.737 112.186C192.737 112.186 207.367 138.195 215.567 141.736M260.127 159.683C260.127 159.683 213.127 59.4428 209.137 45.2599C205.147 31.077 223.327 30.8424 227.977 42.1887C236.347 62.6099 227.977 98.0352 227.977 98.0352M264.787 92.3087C264.787 92.3087 264.117 126.593 250.817 135.807M250.817 203.895C250.817 203.895 234.297 222.685 236.297 239.352C236.297 239.352 251.257 241.485 254.917 236.868C254.917 236.868 239.957 246.092 240.287 276.58C240.287 276.58 249.597 277.646 254.917 270.192C254.917 270.192 240.287 284.727 252.587 312.037C252.587 312.037 262.887 304.594 263.227 296.788C263.227 296.788 257.907 314.874 275.537 334.378C275.537 334.378 281.187 331.893 283.187 323.032C283.187 323.032 293.167 340.403 308.127 347.143C308.127 347.143 323.087 335.082 321.757 309.201C321.757 309.201 329.077 314.17 336.057 315.588C336.057 315.588 345.367 298.217 338.057 275.514C338.057 275.514 346.367 281.901 350.027 279.768C350.027 279.768 344.707 242.178 327.417 235.087C327.417 235.087 337.397 236.153 339.387 233.317C339.387 233.317 328.707 201.048 308.797 198.211M264.787 189.712C264.787 189.712 279.887 202.829 291.017 246.092C302.147 289.355 306.137 302.472 301.817 308.507C297.497 314.543 286.187 314.181 286.857 304.956C287.527 295.732 288.187 260.627 300.827 252.832M287.507 212.053C287.507 212.053 274.537 221.629 271.547 240.067C268.557 258.505 269.547 267.377 269.547 267.377M295.827 101.053C295.827 101.053 304.477 80.2479 323.757 71.1517C323.757 71.1517 329.077 73.2844 329.747 86.1024C329.747 86.1024 339.727 58.5044 362.997 56.3716C386.277 54.2388 390.267 60.6265 390.267 60.6265C390.267 60.6265 401.907 82.658 390.267 78.4991C378.627 74.3402 397.587 62.7592 407.557 63.463C417.527 64.1669 446.797 72.9219 461.427 92.3087L454.777 108.145C454.777 108.145 472.737 101.053 478.057 102.471C483.377 103.89 509.977 139.592 511.977 159.683C511.977 159.683 492.027 184.754 464.087 185.457C464.087 185.457 460.757 195.375 466.747 202.466C466.747 202.466 407.667 209.792 420.637 197.028C433.607 184.263 422.637 217.598 426.847 224.828C426.847 224.828 389.267 232.965 374.137 217.364L368.317 231.547C368.317 231.547 348.107 228.955 335.067 212.042M481.377 146.086C434.157 130.133 380.947 143.74 380.947 143.74C380.947 143.74 385.607 172.671 424.847 179.07M436.817 106.726C436.817 106.726 415.537 116.697 412.877 142.216M374.137 88.9923C374.137 88.9923 359.667 97.2994 353.017 123.287M198.057 130.016C198.057 130.016 165.137 95.6145 134.417 111.205L139.697 121.336C139.697 121.336 120.567 108.454 90.8869 115.535C61.2069 122.615 60.5469 137.971 60.5469 137.971C60.5469 137.971 70.8869 157.273 75.0569 147.249C79.2269 137.225 52.6269 146.289 45.3769 150.128C38.1169 153.967 19.6569 169.984 15.6969 182.77C15.6969 182.77 37.4669 184.039 38.1269 186.598C38.7869 189.158 5.14693 198.115 0.526932 231.717C0.526932 231.717 11.7369 244.194 30.2069 249.312C30.2069 249.312 45.3769 247.521 46.6969 242.018C46.6969 242.018 45.8169 253.578 42.5169 256.671C42.5169 256.671 50.4269 265.308 75.7169 268.934C75.7169 268.934 107.027 261.032 97.6269 255.647C88.2269 250.262 95.4069 273.85 90.2269 280.451C90.2269 280.451 105.397 291.968 136.177 286.849C136.177 286.849 150.687 282.37 155.967 271.707C155.967 271.707 157.947 284.93 156.187 289.409C156.187 289.409 205.657 280.024 209.397 254.42C213.137 228.817 214.017 258.686 214.017 262.312C214.017 262.312 237.317 249.728 239.517 236.921M138.197 192.304C138.197 192.304 72.1369 192.773 25.1369 226.822M44.1969 179.07C44.1969 179.07 88.0969 184.658 101.397 204.087M135.097 204.087C135.097 204.087 131.997 221.149 108.497 244.322M104.057 150.224C104.057 150.224 116.467 147.857 135.097 150.224C153.717 152.591 157.707 158.702 157.707 158.702" stroke="black" stroke-miterlimit="10"/>
</svg>
