<svg width="448" height="393" viewBox="0 0 448 393" fill="none" xmlns="http://www.w3.org/2000/svg">
<path d="M230.093 33.3116C230.093 33.3116 257.253 -1.3984 301.843 0.5816C346.433 2.5616 386.293 29.9716 398.653 75.4416C410.673 119.652 399.563 158.532 377.733 180.672C356.563 202.122 312.443 204.122 312.443 204.122M297.413 296.982C297.413 296.982 314.483 298.422 324.903 324.802C338.233 358.552 307.303 391.642 307.303 391.642C308.323 370.362 279.673 367.032 257.063 355.732C234.453 344.432 241.103 310.502 250.413 294.712C259.723 278.922 279.253 272.402 290.873 277.252C300.963 281.462 292.753 299.462 281.343 290.372C264.363 276.842 270.373 247.322 346.183 226.422C421.993 205.522 446.613 287.882 446.613 287.882C446.613 287.882 435.533 282.122 409.813 288.322C384.093 294.532 389.863 300.732 358.823 302.072C327.783 303.402 291.983 264.952 291.983 264.952M291.983 264.962C291.983 264.962 390.683 229.132 405.623 255.832C420.563 282.532 332.643 242.402 332.643 242.402M265.483 304.572C265.483 304.572 296.743 337.422 300.733 344.072C304.723 350.722 298.733 361.692 291.093 356.712C283.443 351.722 291.993 311.532 291.993 311.532M342.673 265.442C342.673 265.442 358.913 268.862 370.443 279.942M43.5031 64.5416C64.9331 36.8316 113.853 11.9716 173.043 18.6216C232.233 25.2716 268.153 49.2116 291.423 91.1116C314.703 133.012 311.373 216.812 288.093 249.402C264.823 282.002 225.373 325.342 148.803 322.502C75.1331 319.772 19.2631 271.752 3.81311 202.572C-9.90689 141.132 22.0631 92.2616 43.5031 64.5416ZM105.643 138.122C99.9431 140.332 98.3231 153.422 105.643 155.412C112.963 157.412 122.713 152.752 120.943 146.762C119.163 140.782 112.513 135.462 105.643 138.122ZM249.943 104.912C252.573 99.9016 246.463 91.5016 240.443 95.2216C234.413 98.9416 230.403 108.002 234.883 110.182C239.373 112.362 246.773 110.952 249.943 104.912ZM112.963 187.982C110.563 193.102 117.043 201.212 122.893 197.222C128.743 193.232 132.343 184.002 127.763 182.032C123.193 180.062 115.853 181.812 112.963 187.982ZM354.553 50.3816C352.323 52.1416 359.123 80.6516 351.813 82.7416C344.503 84.8316 343.723 76.6316 347.243 75.5816C350.763 74.5416 365.313 97.9516 368.393 97.0116C371.473 96.0816 367.223 64.8416 373.483 65.7416C379.753 66.6316 380.013 74.2416 376.093 74.6916C372.183 75.1316 356.783 48.6216 354.553 50.3816ZM216.713 62.7316C224.173 78.5416 177.053 177.812 164.693 163.562C152.333 149.322 234.463 76.3216 250.563 79.8716C266.663 83.4216 299.523 152.182 284.203 165.242C268.883 178.302 163.303 186.252 165.153 175.022C167.003 163.792 268.883 164.702 275.093 181.252C281.303 197.802 280.043 208.092 270.933 227.792C261.823 247.492 251.103 273.382 229.393 268.852C207.693 264.322 151.693 193.382 164.333 185.522C176.973 177.662 211.703 260.942 200.263 284.272C190.733 303.722 112.433 309.542 105.103 280.042C96.5331 245.542 143.623 182.002 151.383 186.172C159.143 190.342 113.693 268.772 79.1131 265.442C44.5331 262.102 28.2331 201.392 36.8231 179.212C45.4131 157.032 143.513 163.722 145.733 174.212C147.953 184.692 42.8831 158.902 34.8431 146.662C26.8031 134.422 62.8131 59.6716 96.2431 64.6716C129.673 69.6716 165.383 160.132 155.503 165.312C145.623 170.492 101.543 70.5716 122.923 51.0616C144.303 31.5516 206.453 40.9616 216.713 62.7316Z" stroke="black" stroke-miterlimit="10"/>
</svg>
