<svg width="400" height="326" viewBox="0 0 400 326" fill="none" xmlns="http://www.w3.org/2000/svg">
<path d="M-191 76.9194C-191 76.9194 -80.7846 66.6637 62.4228 108.387C205.63 150.11 252.398 202.253 252.398 202.253M-74.7934 74.797C-74.7934 74.797 -64.3168 59.8274 -54.7966 52.1186C-45.2763 44.4099 -25.4991 30.4551 -20.7488 26.236C-16.0062 22.0212 -0.809389 -3.1215 2.5132 0.942782C5.83579 5.00707 -1.09399 23.1715 -8.12312 28.6986C-15.1523 34.2256 -20.3639 36.8463 -29.2379 44.5546C-38.1118 52.2628 -50.9195 68.5928 -53.6568 70.1413C-58.1284 72.6741 -61.6879 68.4091 -57.1618 65.0594C-52.6358 61.7097 -42.1046 61.9286 -36.1164 60.2203C-30.1281 58.512 32.1316 31.7248 39.5948 27.0711C47.0579 22.4174 67.8203 20.9508 44.5034 36.9483C21.1865 52.9459 -18.6694 61.4647 -39.3711 72.0216C-60.0686 82.5873 -60.0685 82.5873 -60.0685 82.5873M-83.4057 79.8186C-83.2244 80.085 -32.5939 96.125 -1.87263 119.921C28.8486 143.718 -6.11472 126.464 -12.2585 123.267C-18.4098 120.074 -35.8407 112.535 -51.8163 105.283C-60.9714 101.131 -69.6588 98.7881 -76.0865 97.1682M-76.0865 97.1682C-80.4047 90.0163 -81.2875 85.4608 -85.9485 86.4299C-91.3615 87.5611 -89.5716 92.2469 -85.9602 94.271C-84.4143 95.1347 -80.873 95.9532 -76.0865 97.1682ZM-76.0865 97.1682C-72.9482 102.36 -69.4568 108.695 -66.0202 114.546C-62.8908 119.877 -59.8087 124.798 -57.0911 128.098C-47.2665 140.003 -6.64001 166.701 1.81593 174.531C10.2686 182.374 44.46 210.532 41.8113 215.037C39.1626 219.543 27.1358 207.78 22.6487 204.014C18.8549 200.815 -41.6304 153.335 -70.0835 125.667M-70.0835 125.667C-75.2836 120.603 -79.413 116.217 -81.9293 112.868C-92.3073 99.0811 -98.6932 85.8763 -101.96 78.1208M-70.0835 125.667C-67.1064 130.199 -62.6172 136.354 -55.926 144.221C-39.4836 163.529 3.2669 196.472 7.06087 199.513C10.8592 202.564 29.8918 224.482 2.28084 205.624C-25.3344 186.757 -51.1722 161.651 -57.8864 154.684C-64.6126 147.713 -73.0609 139.879 -83.3146 121.868C-93.5639 103.865 -91.5554 99.7269 -91.5554 99.7269M-72.0128 104.124C-72.0128 104.124 -2.8446 142.86 9.03651 156.952C20.9209 171.03 30.8538 182.503 3.34676 163.203C-24.1602 143.904 -42.0159 130.267 -47.5091 127.078C-53.0023 123.889 -66.0235 114.559 -66.0235 114.559M-43.4003 74.0651C-30.3861 76.4619 1.98597 82.2726 15.1021 83.2977C31.7135 84.5951 55.8161 87.8787 67.481 86.4368C79.1458 84.9949 105.379 80.7589 74.1581 78.9006C42.9406 77.0292 13.6388 74.4399 3.28947 73.286C-0.349206 72.8826 -4.57409 71.5361 -8.62064 70.2331M-8.62064 70.2331C-16.0612 67.8364 -22.8525 65.5833 -24.1483 69.6381C-24.8355 71.7835 -18.1464 71.5249 -8.62064 70.2331ZM-8.62064 70.2331C9.59077 67.7726 38.1744 61.5254 45.4209 61.048C56.4581 60.3142 90.6526 56.3691 102.27 54.1802C113.886 51.9913 130.665 49.0514 130.665 49.0514C130.665 49.0514 158.835 38.8775 128.408 39.9191C97.9746 40.9651 20.7534 54.6765 20.7534 54.6765L3.99428 55.6637L3.98232 55.6593M34.0836 145.697C44.4789 158.711 62.9989 182.417 81.7631 208.9C110.14 248.97 103.82 242.148 120.655 264.216C137.478 286.28 129.623 266.533 125.684 260.578C121.749 254.631 111.066 235.755 103.2 223.849C98.9523 217.431 86.2268 200.221 72.8365 182.225M34.0836 145.697C33.3531 144.444 32.5759 143.117 31.7466 141.685C15.6832 113.954 8.89969 100.304 8.89969 100.304C8.89969 100.304 22.8255 102.761 53.2536 128.589C83.6784 154.43 92.6009 166.471 97.4377 172.281C102.282 178.087 116.394 203.212 93.0874 179.257C69.7851 155.31 51.1605 139.791 42.8441 134.193C40.1353 132.369 36.4429 129.887 32.804 127.216M34.0836 145.697C47.5813 168.738 46.1022 163.515 67.2324 196.711C89.5113 231.705 65.1934 205.715 60.8989 200.346C56.5967 194.981 36.7009 166.082 23.6737 141.84C13.0265 122.011 2.59536 100.016 -0.852249 92.6454M72.8365 182.225C72.8321 182.217 72.8278 182.208 72.8278 182.208M72.8365 182.225C79.119 186.589 88.5332 193.745 97.127 202.641C111.708 217.731 123.546 235.304 145.842 257.224C168.137 279.144 154.193 257.65 150.15 252.136C146.107 246.622 108.726 200.889 87.3315 182.93C74.9275 172.517 64.8113 166.314 58.4948 162.946M72.8365 182.225C72.8365 182.225 72.8201 182.212 72.8278 182.208M72.8278 182.208C68.0136 175.734 63.1081 169.154 58.4948 162.946M58.4948 162.946L58.4905 162.938C52.1135 154.363 46.272 146.492 41.9086 140.51C38.1957 135.424 35.2272 130.988 32.804 127.216M32.804 127.216C24.6072 114.388 22.8245 109.205 20.3114 112.387C18.0009 115.307 25.2773 121.67 32.804 127.216ZM51.668 105.333C58.6328 103.895 70.9791 101.399 83.8191 99.0697L83.8267 99.0653M83.8267 99.0653C94.4532 97.1306 105.403 95.3135 113.909 94.3153C113.909 94.3153 113.909 94.3153 113.916 94.3109M83.8267 99.0653C94.3996 92.5483 117.537 79.2248 147.579 67.3588C189.244 50.9101 216.58 61.3508 220.672 62.3698C224.759 63.38 233.976 68.1692 219.254 68.0322C204.525 67.8996 194.022 64.4656 164.264 73.3958C142.733 79.8603 123.126 89.4854 113.916 94.3109M113.916 94.3109C116.37 94.025 118.616 93.8136 120.595 93.6766C142.011 92.2052 212.774 95.6358 224.966 97.2251C237.158 98.8143 267.451 111.284 224.333 108.408C181.207 105.537 159.078 104.926 151.389 103.861C149.595 103.622 145.225 103.875 139.587 104.338M139.587 104.338C130.708 105.057 118.699 106.281 108.777 106.835M139.587 104.338C159.394 109.975 198.225 120.8 223.51 126.424C258.67 134.238 246.646 141.521 219.986 137.033C200.226 133.716 139.602 114.185 108.777 106.835M108.777 106.835C97.9732 107.446 89.6255 107.265 90.3904 104.783C90.8887 103.184 98.0188 104.266 108.777 106.835ZM91.5439 117.433C95.059 125.551 101.767 140.232 108.646 150.92C118.651 166.459 157.39 231.953 171.904 250.673C186.418 269.393 193.183 274.49 177.986 247.182C162.789 219.875 136.681 181.118 130.007 169.639C123.329 158.173 113.94 143.774 113.94 143.774C113.94 143.774 193.141 217.383 197.66 221.883C202.179 226.383 235.568 247.526 198.771 211.918C161.977 176.297 140.55 156.124 124.036 140.594C116.698 133.694 110.362 127.251 105.579 122.218M188.052 157.786C195.754 176.892 216.675 227.919 229.967 251.493C246.492 280.822 266.354 311.603 268.588 314.799C270.831 317.99 292.835 339.325 273.013 309.274C253.191 279.222 238.865 260.192 222.859 225.717C212.296 202.944 202.392 177.358 196.878 162.598M204.904 167.217C210.433 163.225 224.943 153.966 246.75 148.925C275.08 142.364 313.914 137.248 335.949 135.051C357.984 132.854 362.927 140.849 333.256 144.061C303.59 147.282 273.003 153.264 259.579 155.738C246.159 158.221 231.277 163.025 224.618 165.354C220.327 166.851 215.242 169.747 212.164 171.615C218.383 183.479 272.264 274.987 291.695 297.058C311.135 319.125 303.197 303.152 299.509 297.052C295.833 290.957 280.592 266.851 263.118 242.175C245.639 217.491 229.401 188.738 228.064 185.397C227.405 183.755 227.539 183.039 228.955 182.776C230.398 182.486 233.184 182.672 237.839 182.773C241.681 182.857 247.918 183.049 255.345 183.388M255.345 183.388C265.657 183.856 278.247 184.611 289.824 185.79C309.721 187.806 334.711 190.254 365.74 201.562C396.769 212.869 382.64 200.819 368.248 194.151C353.856 187.483 338.125 182.695 310.894 179.029C283.663 175.364 248.338 173.762 236.654 174.496C230.812 174.863 224.826 175.886 220.273 176.815M255.345 183.388C264.525 188.457 279.707 196.535 290.814 200.89C307.811 207.556 333.455 215.242 351.715 223.798C369.967 232.359 389.806 249.336 392.233 250.929C394.652 252.526 407.575 269.364 387.739 257.616C367.891 245.863 369.3 245.425 347.497 233.683C332.552 225.626 299.191 212.425 272.48 202.927M242.339 193.03C249.37 194.978 260.221 198.56 272.48 202.927M272.48 202.927C282.244 209.289 294.719 218.426 306.12 229.718C329.379 252.769 352.683 278.847 372.857 304.364C393.032 329.881 369.462 313.261 365.251 308.73C361.048 304.194 345.367 283.798 318.42 254.468C303.415 238.151 283.681 226.333 270.187 218.004M270.187 218.004C265.123 208.8 260.348 199.25 255.354 204.26C252.653 206.966 259.447 211.373 270.187 218.004ZM270.187 218.004C271.3 220.026 272.423 222.03 273.565 223.855C279.922 234.024 290.894 250.86 301.677 263.707C312.46 276.555 324.602 287.881 342.406 306.026C360.218 324.167 344.71 315.905 339.723 312.415C334.733 308.937 323.708 301.83 296.979 269.018C270.251 236.207 249.105 204.143 249.105 204.143" stroke="#233000" stroke-miterlimit="10"/>
</svg>
