<svg width="388" height="547" viewBox="0 0 388 547" fill="none" xmlns="http://www.w3.org/2000/svg">
<path d="M684.049 23.6139C684.049 23.6139 541.594 52.685 374.666 159.919C207.738 267.153 165.937 350.774 165.937 350.774M536.719 65.2316C536.719 65.2316 518.559 50.3363 504.002 44.2383C489.445 38.1402 459.884 28.0708 452.497 24.5578C445.122 21.0474 417.648 -4.88506 414.797 1.50977C411.946 7.9046 426.685 28.1831 437.379 32.4777C448.073 36.7724 455.514 38.0927 469.255 44.4364C482.997 50.7801 504.547 66.5033 508.512 67.4139C514.99 68.9052 518.074 62.1667 511.258 59.6654C504.441 57.164 491.225 61.4545 483.105 61.5815C474.985 61.7085 387.584 51.6406 376.631 48.6133C365.678 45.586 338.996 51.6498 373.698 62.9475C408.399 74.2453 461.501 69.8021 491.107 75.2318C520.71 80.6741 520.71 80.6741 520.71 80.6741M549.243 68.2849C549.103 68.69 490.511 108.229 459.601 149.965C428.691 191.702 467.113 156.604 473.81 150.228C480.518 143.854 500.024 127.697 517.789 112.457C527.97 103.729 538.159 97.4607 545.734 92.9665M545.734 92.9665C548.823 82.2962 548.433 76.2116 554.634 75.6577C561.838 75.0218 561.126 81.6166 557.237 85.5472C555.571 87.2263 551.373 89.6089 545.734 92.9665ZM545.734 92.9665C543.488 100.713 541.174 110.039 538.768 118.731C536.579 126.651 534.314 134.035 531.975 139.235C523.507 158.001 481.057 207.175 472.971 220.278C464.894 233.396 431.045 281.959 435.875 286.634C440.704 291.31 451.997 271.883 456.416 265.42C460.147 259.938 520.796 176.972 547.566 131.214M547.566 131.214C552.456 122.843 556.219 115.734 558.289 110.549C566.833 89.1972 570.533 70.1012 572.094 59.0701M547.566 131.214C545.305 138.067 541.673 147.546 535.826 160.022C521.452 190.653 478.382 248.516 474.599 253.8C470.813 259.097 454.032 294.009 482.647 259.689C511.265 225.356 535.581 183.828 541.753 172.478C547.94 161.118 556.014 148.012 563.007 121.377C569.998 94.755 566.098 90.2988 566.098 90.2988M542.89 103.296C542.89 103.296 468.399 178.539 458.059 200.848C447.71 223.143 438.963 241.404 467.301 206.567C495.64 171.73 513.669 147.717 519.548 141.599C525.426 135.481 538.777 118.746 538.777 118.746M496.866 76.274C481.235 84.259 442.306 103.93 426.095 110.223C405.563 118.193 376.234 131.523 361.039 134.15C345.844 136.777 311.345 141.432 350.126 127.186C388.899 112.925 425.017 98.4889 437.695 93.088C442.153 91.192 447.04 87.8826 451.716 84.696M451.716 84.696C460.313 78.8356 468.139 73.404 471.112 78.0264C472.688 80.4715 464.162 82.6949 451.716 84.696ZM451.716 84.696C427.925 88.5332 389.796 91.5459 380.495 93.7057C366.326 96.987 321.877 105.043 306.496 106.709C291.116 108.376 268.975 111.061 268.975 111.061C268.975 111.061 230.071 108.962 268.807 98.6783C307.554 88.3974 409.517 76.2634 409.517 76.2634L430.99 71.1209L431.003 71.1108M422.739 196.194C413.918 216.578 398.374 253.549 383.438 294.118C360.858 355.495 366.58 344.477 352.622 378.74C338.677 412.994 342.071 385.082 345.075 376.067C348.077 367.063 355.328 339.174 361.323 321.152C364.564 311.434 374.941 284.868 385.897 257.057M422.739 196.194C423.248 194.335 423.79 192.364 424.364 190.24C435.48 149.127 439.534 129.318 439.534 129.318C439.534 129.318 422.773 137.726 392.904 181.914C363.043 226.118 355.759 244.712 351.573 253.887C347.377 263.06 337.863 300.141 359.365 261.03C380.864 221.933 399.242 195.251 407.888 185.018C410.704 181.684 414.544 177.144 418.254 172.387M422.739 196.194C413.313 230.413 413.455 223.258 397.75 273.199C381.188 325.847 403.295 283.784 406.941 275.371C410.599 266.961 426.165 222.914 434.601 187.359C441.492 158.281 447.394 126.551 449.311 115.937M385.897 257.057C385.9 257.045 385.903 257.032 385.903 257.032M385.897 257.057C379.41 264.958 369.894 277.577 361.986 292.077C348.568 316.676 339.431 343.362 318.533 379.519C297.636 415.677 308.136 383.24 311.417 374.742C314.699 366.243 346.772 294.288 367.84 263.472C380.055 245.605 390.772 233.921 397.63 227.264M385.897 257.057C385.897 257.057 385.914 257.034 385.903 257.032M385.903 257.032C389.84 247.027 393.858 236.856 397.63 227.264M397.63 227.264L397.633 227.251C402.849 214.001 407.622 201.842 411.154 192.632C414.16 184.799 416.442 178.07 418.254 172.387M418.254 172.387C424.363 153.076 424.901 145.856 429.123 148.913C433.002 151.717 425.921 162.52 418.254 172.387ZM387.228 151.966C377.965 152.806 361.563 154.364 344.593 156.319L344.582 156.316M344.582 156.316C330.535 157.925 316.119 159.806 305.057 161.789C305.057 161.789 305.057 161.789 305.046 161.786M344.582 156.316C329.09 152.123 295.498 144.13 253.674 140.609C195.672 135.736 164.625 159.33 159.799 162.175C154.975 165.008 144.926 174.565 163.457 168.78C181.999 162.998 194.118 154.661 234.614 154.587C263.915 154.536 291.832 159.208 305.046 161.786M305.046 161.786C301.855 162.361 298.952 162.95 296.409 163.532C268.9 169.839 180.744 201.141 165.885 207.793C151.026 214.446 116.917 241.727 170.375 221.663C223.844 201.602 251.563 192.395 260.915 188.121C263.099 187.136 268.697 185.788 275.963 184.224M275.963 184.224C287.405 181.746 302.962 178.713 315.664 175.63M275.963 184.224C252.832 198.886 207.408 227.347 177.36 244.082C135.574 267.343 153.15 271.949 185.308 256.125C209.147 244.406 279.194 196.654 315.664 175.63M315.664 175.63C329.498 172.283 339.972 168.872 338.187 166.032C337.031 164.204 328.391 168.288 315.664 175.63ZM340.907 182.433C339.151 194.016 335.532 215.098 330.38 231.206C322.885 254.627 295.621 352.034 283.486 381.188C271.35 410.341 264.497 419.351 274.659 379.101C284.821 338.852 304.972 279.997 309.605 262.968C314.247 245.955 321.341 224.207 321.341 224.207C321.341 224.207 245.701 347.277 241.484 354.678C237.268 362.079 202.116 401.484 236.793 342.528C271.462 283.556 291.841 249.934 307.553 224.044C314.534 212.54 320.402 201.995 324.777 193.821M232.452 270.137C229.04 297.18 219.483 369.541 210.492 404.354C199.321 447.66 184.419 494.07 182.654 498.955C180.878 503.837 160.155 539.145 175.248 493.67C190.341 448.195 202.136 418.722 210.954 369.12C216.766 336.359 220.818 300.299 222.903 279.573M214.3 288.462C206.006 285.531 184.642 279.379 155.462 281.331C117.55 283.85 66.8608 292.199 38.3316 297.826C9.80234 303.453 6.20428 315.425 44.7031 308.168C83.1993 300.924 123.768 296.813 141.523 294.818C159.276 292.836 179.64 293.224 188.811 293.625C194.72 293.878 202.091 295.594 206.592 296.778C202.66 314.118 164.877 450.122 147.643 485.378C130.397 520.632 135.142 497.451 137.781 488.349C140.407 479.257 151.683 443.031 165.587 405.234C179.494 367.424 190.493 324.954 191.078 320.23C191.368 317.906 190.963 317.053 189.088 317.261C187.171 317.446 183.717 318.742 177.878 320.644C173.057 322.215 165.251 324.835 155.991 328.094M155.991 328.094C143.134 332.615 127.497 338.366 113.279 344.267C88.8381 354.395 58.1134 367.01 22.6935 393.105C-12.7264 419.199 1.12356 398.609 17.083 384.71C33.0425 370.81 51.3113 358.772 84.4616 343.767C117.612 328.762 161.656 313.276 176.641 309.749C184.133 307.985 192.024 306.994 198.076 306.431M155.991 328.094C146.081 337.989 129.592 353.969 117.014 363.698C97.7669 378.588 67.9463 398.06 47.7304 415.817C27.5255 433.576 8.09621 462.56 5.55911 465.495C3.03308 468.432 -7.71541 494.605 13.4362 472.22C34.6015 449.824 32.6799 449.809 56.3141 426.682C72.513 410.819 110.25 381.445 140.819 359.28M175.586 335.302C167.356 340.439 154.847 349.096 140.819 359.28M140.819 359.28C130.599 371.028 117.874 387.313 107.215 405.907C85.4754 443.858 64.6779 485.646 47.6439 525.534C30.6099 565.421 54.8648 535.465 58.6825 528.143C62.4892 520.818 75.5428 489.105 99.8644 441.825C113.412 415.516 134.411 393.082 148.689 377.43M148.689 377.43C152.041 363.885 154.914 350.015 162.869 354.433C167.17 356.818 160.052 364.968 148.689 377.43ZM148.689 377.43C147.952 380.405 147.196 383.362 146.358 386.1C141.694 401.354 133.406 426.779 124.04 447.1C114.675 467.422 103.092 486.342 86.6155 516.024C70.1284 545.703 86.969 529.368 92.1093 523.062C97.258 516.772 108.824 503.601 131.72 452.012C154.616 400.422 170.715 351.903 170.715 351.903" stroke="#233000" stroke-miterlimit="10"/>
</svg>
