<svg width="352" height="298" viewBox="0 0 352 298" fill="none" xmlns="http://www.w3.org/2000/svg">
<path d="M253.012 50.5936C253.012 50.5936 250.672 47.1173 265.338 30.359C280.005 13.6008 309.813 29.3616 309.813 29.3616C309.813 29.3616 287.502 11.0647 265.312 9.79522C243.123 8.52576 227.379 37.0194 224.802 44.8966C222.221 52.7652 228.626 51.0515 236.165 45.0067C243.704 38.9619 232.664 1.10221 232.664 1.10221C232.664 1.10221 219.551 18.2154 205.103 41.5639C190.654 64.9123 182.549 68.3146 176.472 74.2911C170.405 80.2643 157.5 85.0766 150.558 83.0229C143.616 80.9693 126.932 61.2303 100.235 59.2884C73.537 57.3464 51.0933 67.5249 51.0933 67.5249C51.0933 67.5249 75.2133 68.1538 87.2575 74.5989C99.3018 81.0441 96.6829 92.43 103.882 93.9431C111.081 95.4562 119.653 80.9881 107.601 81.7522C95.5479 82.5163 62.0083 80.9251 51.2023 95.5041C40.3964 110.083 18.1103 130.287 0.0428431 131.124C0.0428431 131.124 41.2111 132.662 59.1181 116.953C77.0251 101.245 104.157 109.487 104.157 109.487L141.985 105.211C141.985 105.211 159.238 101.559 155.723 76.9193C152.208 52.2794 154.45 32.2642 159.679 31.3809L175.665 33.8718C175.665 33.8718 163.544 44.6292 173.905 67.7324C184.266 90.8356 187.472 88.3438 187.472 88.3438M171.357 98.7888C185.938 92.7698 211.407 62.5393 239.753 52.9784C277.253 40.3327 327.105 59.221 346.698 123.745C364.739 183.165 328.316 255.023 246.613 282.652C152.571 314.448 87.3217 293.868 54.3945 221.803C28.9626 166.118 54.4467 125.487 82.1818 114.394C107.828 104.134 143.907 110.121 171.357 98.7888ZM111.302 127.337C138.35 116.909 160.961 125.263 172.739 146.902C180.015 160.274 196.881 206.171 201.947 221.532C207.012 236.894 210.527 262.866 177.714 271.722C147.804 279.786 126.06 272.315 106.433 251.09C86.9571 230.032 67.2968 193.28 74.7694 165.372C82.2419 137.464 96.1426 133.185 111.302 127.337ZM243.274 80.0544C258.276 74.9996 289.279 70.4365 302.046 93.7064C314.803 116.979 328.994 161.665 319.814 188.826C310.637 215.995 284.734 249.738 249.218 236.246C222.35 226.04 198.561 129.208 205.069 112.592C214.405 88.7653 243.274 80.0544 243.274 80.0544ZM135.569 139.298C131.649 141.379 128.462 146.174 135.977 154.531C144.466 163.961 152.329 163.907 150.545 153.561C148.422 141.176 141.172 136.324 135.569 139.298ZM230.625 105.689C226.159 106.295 221.303 109.679 225.006 120.011C229.186 131.672 236.528 134.283 238.952 124.058C241.846 111.799 237.009 104.821 230.625 105.689ZM274.001 100.066C269.698 98.8017 263.734 99.8734 262.189 110.661C260.444 122.838 265.807 128.168 272.809 119.965C281.211 110.115 280.155 101.872 274.001 100.066ZM302.636 146.104C302.763 141.915 300.009 136.89 288.405 138.5C275.303 140.309 271.263 146.567 281.702 150.542C294.217 155.308 302.46 152.096 302.636 146.104ZM297.081 188.045C299.55 184.538 300.031 178.917 289.235 174.657C277.051 169.839 270.084 173.213 276.735 181.673C284.713 191.808 293.556 193.063 297.081 188.045ZM272.75 223.628C276.57 221.403 279.539 216.483 271.659 208.418C262.756 199.315 254.908 199.679 257.148 209.941C259.825 222.247 267.286 226.821 272.75 223.628ZM101.539 160.212C98.3139 163.144 96.5386 168.53 106.081 174.861C116.857 182.01 124.446 180.114 119.913 170.516C114.491 159.026 106.154 156.021 101.539 160.212ZM97.9905 211.358C98.8233 215.47 102.672 219.84 113.643 215.985C126.026 211.635 128.545 204.725 117.434 202.892C104.107 200.699 96.7903 205.464 97.9905 211.358ZM127.233 247.339C130.639 250.091 136.571 251.3 142.602 241.973C149.414 231.435 146.769 224.567 136.826 229.526C124.925 235.461 122.366 243.412 127.233 247.339ZM165.203 260.034C169.221 261.928 175.296 261.766 178.702 251.359C182.548 239.599 178.185 233.537 169.837 240.585C159.833 249.03 159.437 257.317 165.203 260.034Z" stroke="black" stroke-miterlimit="10"/>
</svg>
